<mxfile host="app.diagrams.net" modified="2023-01-31T21:15:45.310Z" agent="5.0 (Windows NT 10.0; Win64; x64) AppleWebKit/537.36 (KHTML, like Gecko) Chrome/109.0.0.0 Safari/537.36" etag="DqFhpx5Ga5axqn1Kvfj0" version="20.8.14" type="github">
  <diagram name="PÃ¡gina-1" id="w__yLXyl57FSHULwBkhx">
    <mxGraphModel dx="880" dy="476" grid="1" gridSize="10" guides="1" tooltips="1" connect="1" arrows="1" fold="1" page="1" pageScale="1" pageWidth="827" pageHeight="1169" math="0" shadow="0">
      <root>
        <mxCell id="0" />
        <mxCell id="1" parent="0" />
        <mxCell id="cErW0z8XwhHBVwl4Ozxc-22" value="" style="rounded=1;arcSize=10;dashed=0;fillColor=none;gradientColor=none;strokeWidth=2;strokeColor=#766e6e;opacity=80;" parent="1" vertex="1">
          <mxGeometry x="85" y="27" width="690" height="530" as="geometry" />
        </mxCell>
        <mxCell id="0rW2kr5seKaUUwZweT1s-1" value="" style="outlineConnect=0;dashed=0;verticalLabelPosition=bottom;verticalAlign=top;align=center;html=1;shape=mxgraph.aws3.ec2;fillColor=#F58534;gradientColor=none;" parent="1" vertex="1">
          <mxGeometry x="621" y="301.75" width="59.25" height="70" as="geometry" />
        </mxCell>
        <mxCell id="0rW2kr5seKaUUwZweT1s-2" value="" style="outlineConnect=0;dashed=0;verticalLabelPosition=bottom;verticalAlign=top;align=center;html=1;shape=mxgraph.aws3.ec2;fillColor=#F58534;gradientColor=none;" parent="1" vertex="1">
          <mxGeometry x="619" y="150" width="61" height="70" as="geometry" />
        </mxCell>
        <mxCell id="cErW0z8XwhHBVwl4Ozxc-1" value="" style="edgeStyle=orthogonalEdgeStyle;rounded=0;orthogonalLoop=1;jettySize=auto;html=1;strokeColor=#544a4a;opacity=80;" parent="1" source="0rW2kr5seKaUUwZweT1s-3" edge="1">
          <mxGeometry relative="1" as="geometry">
            <mxPoint x="299" y="170" as="targetPoint" />
          </mxGeometry>
        </mxCell>
        <mxCell id="cErW0z8XwhHBVwl4Ozxc-10" style="edgeStyle=orthogonalEdgeStyle;rounded=0;orthogonalLoop=1;jettySize=auto;html=1;entryX=0;entryY=0.5;entryDx=0;entryDy=0;entryPerimeter=0;strokeColor=#544a4a;opacity=80;exitX=0.5;exitY=1;exitDx=0;exitDy=0;exitPerimeter=0;" parent="1" source="0rW2kr5seKaUUwZweT1s-3" target="0rW2kr5seKaUUwZweT1s-16" edge="1">
          <mxGeometry relative="1" as="geometry">
            <Array as="points">
              <mxPoint x="299" y="290" />
              <mxPoint x="380" y="290" />
              <mxPoint x="380" y="480" />
            </Array>
          </mxGeometry>
        </mxCell>
        <mxCell id="0rW2kr5seKaUUwZweT1s-3" value="" style="outlineConnect=0;dashed=0;verticalLabelPosition=bottom;verticalAlign=top;align=center;html=1;shape=mxgraph.aws3.lambda_function;fillColor=#F58534;gradientColor=none;" parent="1" vertex="1">
          <mxGeometry x="264" y="210" width="69" height="72" as="geometry" />
        </mxCell>
        <mxCell id="0rW2kr5seKaUUwZweT1s-4" value="" style="rounded=1;arcSize=10;dashed=1;strokeColor=#ff0000;fillColor=none;gradientColor=none;dashPattern=8 4;strokeWidth=2;" parent="1" vertex="1">
          <mxGeometry x="562" y="284" width="150" height="100" as="geometry" />
        </mxCell>
        <mxCell id="0rW2kr5seKaUUwZweT1s-5" value="" style="rounded=1;arcSize=10;dashed=1;strokeColor=#ff0000;fillColor=none;gradientColor=none;dashPattern=8 4;strokeWidth=2;" parent="1" vertex="1">
          <mxGeometry x="561" y="135.44" width="151" height="99.12" as="geometry" />
        </mxCell>
        <mxCell id="cErW0z8XwhHBVwl4Ozxc-6" style="edgeStyle=orthogonalEdgeStyle;rounded=0;orthogonalLoop=1;jettySize=auto;html=1;strokeColor=#544a4a;opacity=80;" parent="1" source="0rW2kr5seKaUUwZweT1s-7" edge="1">
          <mxGeometry relative="1" as="geometry">
            <mxPoint x="260" y="241.5" as="targetPoint" />
          </mxGeometry>
        </mxCell>
        <mxCell id="0rW2kr5seKaUUwZweT1s-7" value="" style="sketch=0;points=[[0,0,0],[0.25,0,0],[0.5,0,0],[0.75,0,0],[1,0,0],[0,1,0],[0.25,1,0],[0.5,1,0],[0.75,1,0],[1,1,0],[0,0.25,0],[0,0.5,0],[0,0.75,0],[1,0.25,0],[1,0.5,0],[1,0.75,0]];outlineConnect=0;fontColor=#232F3E;gradientColor=#FF4F8B;gradientDirection=north;fillColor=#BC1356;strokeColor=#ffffff;dashed=0;verticalLabelPosition=bottom;verticalAlign=top;align=center;html=1;fontSize=12;fontStyle=0;aspect=fixed;shape=mxgraph.aws4.resourceIcon;resIcon=mxgraph.aws4.eventbridge;" parent="1" vertex="1">
          <mxGeometry x="110" y="210" width="63" height="63" as="geometry" />
        </mxCell>
        <mxCell id="0rW2kr5seKaUUwZweT1s-9" value="" style="endArrow=classic;html=1;rounded=0;entryX=0.105;entryY=0.571;entryDx=0;entryDy=0;opacity=80;strokeColor=#544a4a;entryPerimeter=0;" parent="1" source="0rW2kr5seKaUUwZweT1s-3" target="0rW2kr5seKaUUwZweT1s-24" edge="1">
          <mxGeometry width="50" height="50" relative="1" as="geometry">
            <mxPoint x="333" y="245.5" as="sourcePoint" />
            <mxPoint x="457" y="334" as="targetPoint" />
            <Array as="points">
              <mxPoint x="430" y="246" />
            </Array>
          </mxGeometry>
        </mxCell>
        <mxCell id="0rW2kr5seKaUUwZweT1s-10" value="" style="endArrow=classic;html=1;rounded=0;entryX=0.105;entryY=0.562;entryDx=0;entryDy=0;opacity=80;strokeColor=#544a4a;entryPerimeter=0;exitX=1;exitY=0.5;exitDx=0;exitDy=0;exitPerimeter=0;" parent="1" source="0rW2kr5seKaUUwZweT1s-3" target="0rW2kr5seKaUUwZweT1s-25" edge="1">
          <mxGeometry width="50" height="50" relative="1" as="geometry">
            <mxPoint x="332" y="220" as="sourcePoint" />
            <mxPoint x="454" y="145" as="targetPoint" />
            <Array as="points">
              <mxPoint x="430" y="246" />
            </Array>
          </mxGeometry>
        </mxCell>
        <mxCell id="0rW2kr5seKaUUwZweT1s-11" value="" style="endArrow=classic;html=1;rounded=0;opacity=80;strokeColor=#544a4a;exitX=0.5;exitY=1;exitDx=0;exitDy=0;exitPerimeter=0;" parent="1" source="0rW2kr5seKaUUwZweT1s-3" edge="1">
          <mxGeometry width="50" height="50" relative="1" as="geometry">
            <mxPoint x="294" y="285" as="sourcePoint" />
            <mxPoint x="300" y="380" as="targetPoint" />
          </mxGeometry>
        </mxCell>
        <mxCell id="0rW2kr5seKaUUwZweT1s-12" value="sg-Private" style="text;html=1;strokeColor=none;fillColor=none;align=center;verticalAlign=middle;whiteSpace=wrap;rounded=0;" parent="1" vertex="1">
          <mxGeometry x="565" y="135.44" width="60" height="30" as="geometry" />
        </mxCell>
        <mxCell id="0rW2kr5seKaUUwZweT1s-13" value="sg-Public" style="text;html=1;strokeColor=none;fillColor=none;align=center;verticalAlign=middle;whiteSpace=wrap;rounded=0;" parent="1" vertex="1">
          <mxGeometry x="565" y="282" width="60" height="30" as="geometry" />
        </mxCell>
        <mxCell id="0rW2kr5seKaUUwZweT1s-18" value="" style="rounded=1;arcSize=10;dashed=0;fillColor=none;gradientColor=none;strokeWidth=2;" parent="1" vertex="1">
          <mxGeometry x="530" y="80" width="220" height="330" as="geometry" />
        </mxCell>
        <mxCell id="0rW2kr5seKaUUwZweT1s-19" value="" style="dashed=0;html=1;shape=mxgraph.aws3.virtual_private_cloud;fillColor=#F58536;gradientColor=none;dashed=0;" parent="1" vertex="1">
          <mxGeometry x="520" y="51.75" width="52" height="36" as="geometry" />
        </mxCell>
        <mxCell id="0rW2kr5seKaUUwZweT1s-23" value="" style="outlineConnect=0;dashed=0;verticalLabelPosition=bottom;verticalAlign=top;align=center;html=1;shape=mxgraph.aws3.bucket_with_objects;fillColor=#E05243;gradientColor=none;" parent="1" vertex="1">
          <mxGeometry x="272" y="101.75" width="60" height="61.5" as="geometry" />
        </mxCell>
        <mxCell id="0rW2kr5seKaUUwZweT1s-24" value="Subnet" style="sketch=0;outlineConnect=0;gradientColor=none;html=1;whiteSpace=wrap;fontSize=12;fontStyle=0;shape=mxgraph.aws4.group;grIcon=mxgraph.aws4.group_subnet;strokeColor=#879196;fillColor=none;verticalAlign=top;align=left;spacingLeft=30;fontColor=#879196;dashed=0;" parent="1" vertex="1">
          <mxGeometry x="540" y="250" width="191" height="140" as="geometry" />
        </mxCell>
        <mxCell id="0rW2kr5seKaUUwZweT1s-25" value="Subnet" style="sketch=0;outlineConnect=0;gradientColor=none;html=1;whiteSpace=wrap;fontSize=12;fontStyle=0;shape=mxgraph.aws4.group;grIcon=mxgraph.aws4.group_subnet;strokeColor=#879196;fillColor=none;verticalAlign=top;align=left;spacingLeft=30;fontColor=#879196;dashed=0;" parent="1" vertex="1">
          <mxGeometry x="540" y="100" width="190" height="142.25" as="geometry" />
        </mxCell>
        <mxCell id="0rW2kr5seKaUUwZweT1s-26" value="hello-python.zip" style="text;html=1;strokeColor=none;fillColor=none;align=center;verticalAlign=middle;whiteSpace=wrap;rounded=0;" parent="1" vertex="1">
          <mxGeometry x="258" y="71.75" width="90" height="30" as="geometry" />
        </mxCell>
        <mxCell id="0rW2kr5seKaUUwZweT1s-28" value="CloudWatch Lambda Logs" style="text;html=1;strokeColor=none;fillColor=none;align=center;verticalAlign=middle;whiteSpace=wrap;rounded=0;" parent="1" vertex="1">
          <mxGeometry x="264" y="450" width="91" height="30" as="geometry" />
        </mxCell>
        <mxCell id="0rW2kr5seKaUUwZweT1s-29" value="" style="sketch=0;outlineConnect=0;fontColor=#232F3E;gradientColor=none;fillColor=#B0084D;strokeColor=none;dashed=0;verticalLabelPosition=bottom;verticalAlign=top;align=center;html=1;fontSize=12;fontStyle=0;aspect=fixed;pointerEvents=1;shape=mxgraph.aws4.logs;" parent="1" vertex="1">
          <mxGeometry x="280" y="390" width="67.24" height="50" as="geometry" />
        </mxCell>
        <mxCell id="0rW2kr5seKaUUwZweT1s-31" value="if deletes SG Ingress Rule" style="text;html=1;strokeColor=none;fillColor=none;align=center;verticalAlign=middle;whiteSpace=wrap;rounded=0;rotation=0;" parent="1" vertex="1">
          <mxGeometry x="390" y="440" width="80" height="30" as="geometry" />
        </mxCell>
        <mxCell id="0rW2kr5seKaUUwZweT1s-32" value="" style="outlineConnect=0;dashed=0;verticalLabelPosition=bottom;verticalAlign=top;align=center;html=1;shape=mxgraph.aws3.email;fillColor=#D9A741;gradientColor=none;" parent="1" vertex="1">
          <mxGeometry x="660" y="449.25" width="81" height="61.5" as="geometry" />
        </mxCell>
        <mxCell id="cErW0z8XwhHBVwl4Ozxc-20" value="" style="edgeStyle=orthogonalEdgeStyle;rounded=0;orthogonalLoop=1;jettySize=auto;html=1;strokeColor=#544a4a;opacity=80;" parent="1" source="0rW2kr5seKaUUwZweT1s-16" edge="1">
          <mxGeometry relative="1" as="geometry">
            <mxPoint x="660" y="480" as="targetPoint" />
          </mxGeometry>
        </mxCell>
        <mxCell id="0rW2kr5seKaUUwZweT1s-16" value="" style="sketch=0;points=[[0,0,0],[0.25,0,0],[0.5,0,0],[0.75,0,0],[1,0,0],[0,1,0],[0.25,1,0],[0.5,1,0],[0.75,1,0],[1,1,0],[0,0.25,0],[0,0.5,0],[0,0.75,0],[1,0.25,0],[1,0.5,0],[1,0.75,0]];outlineConnect=0;fontColor=#232F3E;gradientColor=#FF4F8B;gradientDirection=north;fillColor=#BC1356;strokeColor=#ffffff;dashed=0;verticalLabelPosition=bottom;verticalAlign=top;align=center;html=1;fontSize=12;fontStyle=0;aspect=fixed;shape=mxgraph.aws4.resourceIcon;resIcon=mxgraph.aws4.sns;" parent="1" vertex="1">
          <mxGeometry x="514" y="440" width="80" height="80" as="geometry" />
        </mxCell>
        <mxCell id="cErW0z8XwhHBVwl4Ozxc-23" value="" style="dashed=0;html=1;shape=mxgraph.aws3.cloud;fillColor=#F58536;gradientColor=none;dashed=0;strokeColor=#544a4a;opacity=80;" parent="1" vertex="1">
          <mxGeometry x="80" width="70" height="40" as="geometry" />
        </mxCell>
        <mxCell id="EMiUXmA2TzAGbyrj5rAF-3" value="" style="edgeStyle=orthogonalEdgeStyle;rounded=0;orthogonalLoop=1;jettySize=auto;html=1;strokeColor=#766e6e;" edge="1" parent="1" source="EMiUXmA2TzAGbyrj5rAF-1" target="0rW2kr5seKaUUwZweT1s-7">
          <mxGeometry relative="1" as="geometry" />
        </mxCell>
        <mxCell id="EMiUXmA2TzAGbyrj5rAF-1" value="" style="sketch=0;points=[[0,0,0],[0.25,0,0],[0.5,0,0],[0.75,0,0],[1,0,0],[0,1,0],[0.25,1,0],[0.5,1,0],[0.75,1,0],[1,1,0],[0,0.25,0],[0,0.5,0],[0,0.75,0],[1,0.25,0],[1,0.5,0],[1,0.75,0]];points=[[0,0,0],[0.25,0,0],[0.5,0,0],[0.75,0,0],[1,0,0],[0,1,0],[0.25,1,0],[0.5,1,0],[0.75,1,0],[1,1,0],[0,0.25,0],[0,0.5,0],[0,0.75,0],[1,0.25,0],[1,0.5,0],[1,0.75,0]];outlineConnect=0;fontColor=#232F3E;gradientColor=#F34482;gradientDirection=north;fillColor=#BC1356;strokeColor=#ffffff;dashed=0;verticalLabelPosition=bottom;verticalAlign=top;align=center;html=1;fontSize=12;fontStyle=0;aspect=fixed;shape=mxgraph.aws4.resourceIcon;resIcon=mxgraph.aws4.cloudtrail;" vertex="1" parent="1">
          <mxGeometry x="110" y="72.19" width="63.25" height="63.25" as="geometry" />
        </mxCell>
      </root>
    </mxGraphModel>
  </diagram>
</mxfile>
